<?xml version="1.0" encoding="iso-8859-1"?>
<!-- Generator: Adobe Illustrator 17.1.0, SVG Export Plug-In . SVG Version: 6.00 Build 0)  -->
<!DOCTYPE svg PUBLIC "-//W3C//DTD SVG 1.1//EN" "http://www.w3.org/Graphics/SVG/1.1/DTD/svg11.dtd">
<svg version="1.1" id="Capa_1" xmlns="http://www.w3.org/2000/svg" xmlns:xlink="http://www.w3.org/1999/xlink" x="0px" y="0px"
	 viewBox="0 0 430 430" style="enable-background:new 0 0 430 430;" xml:space="preserve">
<g>
	<polygon style="fill:#6ECCAE;" points="361.219,34.142 342.05,53.311 342.05,73.807 361.219,54.639 	"/>
	<polygon style="fill:#6ECCAE;" points="375.361,68.781 356.193,87.949 376.689,87.949 395.857,68.781 	"/>
	<path style="fill:#FFFFFF;" d="M74.552,256.345c0,54.646,44.458,99.103,99.104,99.103s99.104-44.458,99.104-99.103
		c0-23.729-8.387-45.534-22.346-62.615l-24.618,24.618c7.796,10.669,12.413,23.801,12.413,37.996
		c0,35.594-28.958,64.552-64.552,64.552c-35.594,0-64.552-28.958-64.552-64.552c0-35.594,28.958-64.552,64.552-64.552
		c14.196,0,27.328,4.617,37.996,12.413l24.618-24.618c-17.081-13.96-38.886-22.346-62.615-22.346
		C119.009,157.241,74.552,201.699,74.552,256.345z"/>
	<path style="fill:#FFFFFF;" d="M289.091,155.051l-24.486,24.486c17.553,20.752,28.154,47.563,28.154,76.807
		c0,65.674-53.43,119.103-119.104,119.103c-65.674,0-119.104-53.43-119.104-119.103c0-65.674,53.43-119.104,119.104-119.104
		c29.244,0,56.055,10.601,76.807,28.154l24.486-24.486c-27.064-23.778-62.522-38.219-101.294-38.219
		C88.93,102.69,20,171.619,20,256.345S88.93,410,173.655,410S327.31,341.07,327.31,256.345
		C327.31,217.573,312.869,182.115,289.091,155.051z"/>
	<path style="fill:#E85512;" d="M173.655,137.241c-65.674,0-119.104,53.43-119.104,119.104c0,65.674,53.43,119.103,119.104,119.103
		c65.674,0,119.104-53.43,119.104-119.103c0-29.245-10.601-56.055-28.154-76.807l-14.193,14.193
		c13.96,17.081,22.346,38.886,22.346,62.615c0,54.646-44.457,99.103-99.104,99.103s-99.104-44.458-99.104-99.103
		s44.458-99.104,99.104-99.104c23.729,0,45.534,8.386,62.615,22.346l14.193-14.193C229.711,147.842,202.9,137.241,173.655,137.241z"
		/>
	<path style="fill:#E85512;" d="M129.104,256.345c0,24.566,19.986,44.552,44.552,44.552c24.566,0,44.552-19.985,44.552-44.552
		c0-8.669-2.497-16.761-6.797-23.612l-30.683,30.683c-1.953,1.952-4.512,2.929-7.071,2.929c-2.559,0-5.119-0.977-7.071-2.929
		c-3.905-3.905-3.905-10.237,0-14.143l30.683-30.683c-6.851-4.3-14.943-6.797-23.612-6.797
		C149.089,211.793,129.104,231.778,129.104,256.345z"/>
	<path d="M429.239,54.954c-1.548-3.736-5.194-6.173-9.239-6.173h-38.781V10c0-4.045-2.436-7.691-6.173-9.239
		c-3.738-1.546-8.038-0.691-10.898,2.168l-39.168,39.168c-1.875,1.876-2.929,4.419-2.929,7.071v44.639l-32.853,32.853
		C257.37,98.238,216.722,82.69,173.655,82.69c-46.421,0-90.039,18.054-122.82,50.835C18.054,166.306,0,209.924,0,256.345
		s18.054,90.039,50.835,122.82C83.616,411.946,127.234,430,173.655,430s90.039-18.054,122.82-50.835
		c32.781-32.781,50.835-76.399,50.835-122.82c0-43.067-15.549-83.715-43.971-115.542l32.854-32.854h44.638
		c2.652,0,5.196-1.054,7.071-2.929l39.169-39.168C429.931,62.992,430.787,58.691,429.239,54.954z M173.655,410
		C88.93,410,20,341.07,20,256.345S88.93,102.69,173.655,102.69c38.772,0,74.229,14.441,101.294,38.219l-24.486,24.486
		l-14.193,14.193l-24.618,24.618c-10.668-7.796-23.801-12.413-37.996-12.413c-35.594,0-64.552,28.958-64.552,64.552
		c0,35.594,28.958,64.552,64.552,64.552c35.594,0,64.552-28.958,64.552-64.552c0-14.196-4.617-27.328-12.413-37.996l24.618-24.618
		l14.193-14.193l24.486-24.486c23.778,27.064,38.219,62.522,38.219,101.294C327.31,341.07,258.381,410,173.655,410z
		 M166.584,249.273c-3.905,3.905-3.905,10.237,0,14.143c1.953,1.952,4.512,2.929,7.071,2.929c2.559,0,5.119-0.977,7.071-2.929
		l30.683-30.683c4.3,6.851,6.797,14.943,6.797,23.612c0,24.566-19.986,44.552-44.552,44.552c-24.566,0-44.552-19.985-44.552-44.552
		s19.986-44.552,44.552-44.552c8.669,0,16.761,2.497,23.612,6.797L166.584,249.273z M356.193,87.949l19.168-19.168h20.496
		l-19.168,19.168H356.193z M342.05,53.311l19.168-19.169v20.497L342.05,73.807V53.311z"/>
</g>
<g>
</g>
<g>
</g>
<g>
</g>
<g>
</g>
<g>
</g>
<g>
</g>
<g>
</g>
<g>
</g>
<g>
</g>
<g>
</g>
<g>
</g>
<g>
</g>
<g>
</g>
<g>
</g>
<g>
</g>
</svg>
