<svg height="511.99978pt" viewBox="1 1 511.99978 511.99978" width="511.99978pt" xmlns="http://www.w3.org/2000/svg"><path d="m27.441406 34.066406 6.625-6.625c36.585938-36.589844 95.910156-36.589844 132.496094 0l317.996094 317.996094c36.589844 36.585938 36.589844 95.90625 0 132.496094l-6.625 6.625c-36.585938 36.589844-95.910156 36.589844-132.496094 0l-317.996094-317.996094c-36.589844-36.585938-36.589844-95.90625 0-132.496094zm0 0" fill="#fbb540"/><path d="m99.066406 200.945312 93.296875-93.296874 26.5 26.5-93.296875 93.296874zm0 0" fill="#b9b9b9"/><path d="m198.550781 186.449219c0 10.351562-8.390625 18.738281-18.738281 18.738281s-18.738281-8.386719-18.738281-18.738281c0-10.347657 8.390625-18.738281 18.738281-18.738281s18.738281 8.390624 18.738281 18.738281zm0 0" fill="#a8a8a8"/><path d="m293.714844 390.53125 89.292968-89.296875 26.5 26.5-89.296874 89.296875zm0 0" fill="#b9b9b9"/><path d="m116.054688 217.9375 93.296874-93.296875 9.507813 9.503906-93.296875 93.300781zm0 0" fill="#a8a8a8"/><path d="m293.714844 390.535156 89.296875-89.296875 7.5625 7.566407-89.292969 89.296874zm0 0" fill="#a8a8a8"/><path d="m350.917969 338.820312c0 10.347657-8.386719 18.734376-18.738281 18.734376-10.347657 0-18.738282-8.386719-18.738282-18.734376 0-10.351562 8.390625-18.738281 18.738282-18.738281 10.351562 0 18.738281 8.386719 18.738281 18.738281zm0 0" fill="#a8a8a8"/><g fill="#ea9d2d"><path d="m20.816406 159.957031 59.625-59.621093 13.25 13.25-59.625 59.621093zm0 0"/><path d="m93.6875 87.070312 13.25-13.25 13.25 13.25-13.25 13.25zm0 0"/><path d="m424.929688 405.078125 59.625-59.625 13.25 13.25-59.625 59.625zm0 0"/><path d="m398.433594 431.570312 13.25-13.25 13.25 13.25-13.25 13.25zm0 0"/></g><path d="m56.871094 216.632812 39.75-39.75 52.996094 53-39.746094 39.75zm0 0" fill="#cdcdcd"/><path d="m176.121094 97.382812 39.746094-39.746093 53 52.996093-39.75 39.75zm0 0" fill="#cdcdcd"/><path d="m101.167969 260.929688 39.75-39.75 8.703125 8.703124-39.746094 39.75zm0 0" fill="#b9b9b9"/><path d="m220.417969 141.679688 39.75-39.75 8.703125 8.707031-39.75 39.746093zm0 0" fill="#b9b9b9"/><path d="m246.0625 411.699219 39.75-39.75 52.996094 53-39.746094 39.75zm0 0" fill="#cdcdcd"/><path d="m365.3125 292.449219 39.746094-39.746094 53 52.996094-39.75 39.75zm0 0" fill="#cdcdcd"/><path d="m290.296875 455.921875 39.746094-39.746094 8.761719 8.757813-39.75 39.746094zm0 0" fill="#b9b9b9"/><path d="m409.539062 336.691406 39.746094-39.75 8.761719 8.757813-39.75 39.75zm0 0" fill="#b9b9b9"/></svg>